<?xml version="1.0" encoding="UTF-8"?>
<svg id="Layer_1" data-name="Layer 1" xmlns="http://www.w3.org/2000/svg" viewBox="0 0 1024 1024">
  <defs>
    <style>
      .cls-1, .cls-2 {
        stroke-width: 0px;
      }

      .cls-2 {
        fill: #fff;
      }
    </style>
  </defs>
  <path class="cls-2" d="M0,0c341.33,0,682.67,0,1024,0v1024c-341.33,0-682.67,0-1024,0C0,682.67,0,341.33,0,0ZM334.12,791.17c0,4.28.29,7.43-.06,10.51-.8,7.13,2.48,11.37,8.91,13.71,1.4.51,2.74,1.2,4.12,1.79,39.75,17.03,79.51,34.06,119.27,51.08,5.35,2.29,10.63,4.78,16.1,6.71,5.16,1.82,8.94-.94,9.25-6.32.17-2.99.13-6,.1-9-.62-57.64-1.34-115.27-1.78-172.91-.05-7.24-.97-12.94-9.37-14.27-.38-.06-.69-.59-1.43-1.26,1.34-.22,2.23-.4,3.13-.5,19.54-2.05,39.08-4.14,58.64-6.12,31.98-3.23,63.96-6.46,95.96-9.55,37.8-3.65,75.61-7.25,113.43-10.66,10.47-.94,21.11-3.39,31.97,1.33-20.79,2.15-41.06,4.28-61.33,6.33-24.51,2.48-49.04,4.8-73.54,7.35-30.13,3.14-60.25,6.43-90.37,9.68-17.21,1.86-34.41,3.81-51.62,5.63-4.08.43-5.72,2.39-5.69,6.54.17,23.66.29,47.32.2,70.99-.13,36.15-.37,72.31-.77,108.46-.05,4.18,1.78,6.45,5.28,7.28,3.14.74,6.61,1.28,9.72.71,36.51-6.63,72.96-13.57,109.46-20.26,55.64-10.2,111.31-20.28,166.97-30.4,5.71-1.04,11.96-3.99,16.97-2.56,5.03,1.44,9.11,6.96,13.07,11.2,4.89,5.23,9.27.9,13.69-.25,3.75-.97,4.56-4.27,4.54-7.95-.08-13.16.12-26.33-.01-39.49-.03-3.31.94-4.51,4.34-5.06,19.05-3.08,38.05-6.42,57.04-9.84,1.99-.36,3.8-1.79,5.69-2.73-2.04-.4-4.14-1.37-6.09-1.12-12.87,1.66-25.7,3.63-38.56,5.4-7.31,1.01-14.64,1.84-22.45,2.82,0-9.81.05-18.79,0-27.77-.25-34.48-.56-68.96-.78-103.44-.02-3.5-1.13-5.4-4.87-6.22-20.94-4.59-41.81-9.54-62.76-14.07-4.23-.91-5.6-2.81-5.8-6.95-.19-3.94-1.09-7.94-2.26-11.73-1.55-4.99-3.58-9.79-10.01-10.39-1.08-.1-2.01-1.56-3.04-2.35-1.71-1.31-3.35-3.55-5.17-3.71-7.98-.74-14.75-4.81-22.13-7.07-4.56-1.4-9.93.66-13.74-4.41-1.1-1.47-4.66-1.48-7.09-1.49-6.24,0-12,2.54-14.85,7.79-3.75,6.91-8.57,7.47-14.95,5.33-.78-.26-1.63-.34-2.44-.49-7.75-1.42-8.74-.67-9.24,6.92-.01.19-.47.35.39-.25-37.45-24.86-74.48-49.44-111.42-73.97,15.01-8.07,25.12-20.94,31.08-37.11,2.81-7.63,5.44-15.44,7.02-23.39,3.07-15.47,5.34-31.09,7.92-46.49,1.83-.74,4.33-1.37,6.43-2.66,7.58-4.69,12.17-11.79,14.77-20.1,5.05-16.13,5.9-32.8,4.69-49.46-1.14-15.77-10.68-26.22-24.22-27.32-7.9-.64-15.52,1.34-22.55,5.21-1.61.89-3.31,1.62-4.97,2.42,1.23-3.28,3.26-5.46,4.99-7.85,4.54-6.3,2.65-15.75-4.04-18.92-20.05-9.5-41.05-13.32-63.14-9.87-15.66,2.45-30.28,7.58-43.09,17.69-4.56-7.42-11.04-11.29-19.26-12.42-14.88-2.04-27.58,2.91-38.71,12.35-10.47,8.87-18.49,19.69-23.34,32.56-10.37,27.57-15.52,56.09-14.13,85.58.69,14.69,5.1,28.15,15.53,39.05,6.78,7.09,15.01,10.99,25.43,11.21-.56-.91-.71-1.43-1.05-1.65-11.88-7.84-14.51-19.66-13.93-32.74.21-4.83,2.01-9.11,6.28-11.91,11.2-7.35,25.15-7.67,34.33,4.18.7.9,1.12,2,1.92,3.45,18.35-18.05,26.57-39.49,31.39-63.86,7.62,14.09,17.37,24.89,29.89,33.78-4.21,1.59-7.73,2.62-10.97,4.23-2.78,1.38-7.33,2.43-5.58,6.79,1.65,4.11,5.4,1.45,8.33.97,8.97-1.47,17.97-2.75,26.89-4.46,1.92-.37,3.57-2.22,5.34-3.38-1.41-1.64-2.53-3.86-4.32-4.75-1.78-.89-4.24-.34-6.38-.62-1.59-.21-3.47-.3-4.67-1.19-6.42-4.75-12.7-9.69-18.95-14.67-1.12-.89-1.88-2.22-2.81-3.35,16.64,13.85,36.19,18.03,57.42,18.81-1.39,1.64-2.51,2.51-3,3.65-.61,1.43-1.41,3.47-.83,4.51.54.96,2.95,1.58,4.29,1.28,9.86-2.21,19.51-.82,29.23.96,1.77.32,3.87-1.12,5.82-1.75-1.26-1.87-2.12-4.75-3.84-5.41-4.97-1.91-10.27-2.92-14.95-4.15,9.01-2.41,18.54-4.96,29.3-7.84.5,5.65,1.64,11.04,1.34,16.36-1.36,23.93-6.85,47.06-14.65,69.64-5.52,15.99-15.41,28.47-30.26,37.09-19.36,11.24-40.28,13.1-61.86,10.92-16.55-1.67-31.27-8-43.15-19.88-9.16-9.16-15.77-19.95-19.2-31.21,5.29-4.43,9.94-8.07,14.22-12.09.97-.91.66-3.19.95-4.84-1.64.31-3.57.18-4.88,1.01-4.07,2.57-7.73,5.83-11.9,8.19-3.78,2.13-4.82,4.63-3.2,8.52,3.69,8.83,7.34,17.69,11.05,26.64-4.83,2.09-10.62,3.94-15.75,6.93-13.64,7.93-26.78,16.74-40.52,24.48-13.78,7.76-26.09,16.95-36.37,29.15-25.98,30.82-52.82,60.92-78.45,92.02-12.79,15.52-24.25,32.34-29.93,52.08-3.48,12.07-4.13,24.31,2.19,35.91,9.71,17.83,25.87,25.29,48.2,22.05,8.19-1.19,16.29-2.93,24.53-4.44,2.78,6.06,3.9,11.56-2.04,16.88-4.81,4.31-8.92,9.44-13.05,14.45-2.75,3.33-5.87,4.69-10.22,4.99-26.24,1.8-52.49,3.67-78.69,6-33.83,3.01-67.63,6.4-101.42,9.79-10.76,1.08-21.48,2.56-32.18,4.11-2.45.35-4.75,1.71-7.12,2.6.17.52.34,1.04.52,1.55,92.36-7.74,184.73-15.48,277.73-23.27ZM237.63,840.12c0-.34,0-.69,0-1.03-2.16-.1-4.36-.49-6.47-.22-1.45.19-3.46.97-3.98,2.07-.47,1.01.37,3.09,1.25,4.19,3.12,3.88,6.81,7.33,9.75,11.33,7.77,10.59,15.38,21.32,22.81,32.15,2.46,3.58,4.52,3.56,8.19,1.57,6.39-3.47,13-6.91,19.93-8.95,13.53-3.98,27.33-7.03,41.05-10.37,6.44-1.57,7.29-3.33,2.91-8.06-6.44-6.96-13.11-13.72-19.95-20.29-1.47-1.41-4.08-2.28-6.18-2.29-23.1-.16-46.21-.1-69.32-.1ZM272.25,525.71c.7.07,1.4.15,2.1.22.95-1.99,2.41-3.89,2.76-5.98.81-4.73,1.15-9.54,1.55-14.33.7-8.33,4.93-13.44,12.95-15.63,2.23-.61,4.55-1.18,6.55-2.28,1.22-.67,1.9-2.32,2.83-3.52-1.22-.58-2.46-1.7-3.66-1.66-10.47.31-16.75-5.78-19.38-15.9-1-3.86-1.76-7.8-3.14-11.52-.49-1.33-2.5-2.09-3.81-3.12-.93,1.24-2.46,2.38-2.66,3.73-.34,2.24,0,4.63.37,6.9,1.51,9.49-1.45,15.31-10.01,19.33-2.56,1.2-5.27,2.12-7.67,3.57-1.16.7-1.75,2.32-2.6,3.53,1.2.59,2.36,1.34,3.63,1.72.92.27,1.98.01,2.98.04,10.53.25,16.22,5.99,16.3,16.59.03,4.32-.36,8.65-.29,12.97.03,1.79.77,3.57,1.18,5.35ZM693.47,444.86c.83.03,1.66.05,2.49.08,1.01-2.83,2.43-5.6,2.92-8.52.68-4.09.57-8.3.94-12.44.68-7.75,4.7-12.56,12.08-14.72,2.23-.65,4.54-1.18,6.6-2.22,1.29-.65,2.16-2.13,3.22-3.23-1.32-.69-2.59-1.85-3.98-2.01-11.24-1.27-15.46-4.62-18.78-15.47-1.22-3.98-1.98-8.11-3.42-11.99-.5-1.35-2.43-2.17-3.71-3.23-.92,1.42-2.36,2.75-2.63,4.29-.37,2.06.1,4.29.3,6.43.99,10.19-1.57,16.39-10.07,19.23-2.82.95-5.55,2.28-8.14,3.75-.92.52-1.91,2.13-1.73,3,.17.82,1.77,1.65,2.87,1.9,1.43.32,2.98.02,4.48.07,9.72.36,15.38,6.06,15.51,15.8.06,4.5-.35,9-.25,13.49.04,1.93.84,3.85,1.29,5.77ZM539.01,428.43c0-1.86.11-3.04-.02-4.18-.29-2.4,1.47-6.14-2.41-6.36-1.26-.07-2.9,3.68-4.07,5.84-.5.94-.27,2.28-.33,3.44-.48,8.97.95,17.39,5.66,25.33,3.1,5.24,1.28,10.56-3.32,12.84-4.09,2.02-6.61.67-10.26-5.01-.81-1.26-2.5-1.95-3.78-2.91-.63,1.75-1.93,3.56-1.77,5.24.61,6.41,6.44,10.67,13.16,10.06,11.54-1.04,17.58-12.66,11.93-23.93-3.38-6.74-5.35-13.54-4.79-20.36ZM518.2,495.06c4.89-1.9,9.91-3.52,14.58-5.86,1.34-.67,1.64-3.4,2.42-5.18-1.63.08-3.29.03-4.9.29-.95.15-1.81.8-2.73,1.2-11.27,4.9-13.96,3.82-18.93-7.26-.43-.97-1.79-1.52-2.72-2.26-.65,1.01-1.75,1.97-1.87,3.03-.87,7.89,5.73,15.01,14.15,16.04ZM509.16,430.17c-1.75-2.2-3.19-5.67-5-5.86-1.88-.2-5.12,2.33-5.94,4.4-1.21,3.03-1.18,6.74-.89,10.09.11,1.27,2.26,2.98,3.75,3.32,1.15.26,3.31-.97,3.97-2.13,1.59-2.81,2.56-5.98,4.11-9.82ZM299.39,315.63c.04-3.88-3.01-6.97-6.89-6.96-3.98,0-6.72,2.83-6.78,7-.06,4.09,2.82,7.11,6.7,7.03,3.76-.08,6.93-3.3,6.97-7.07ZM400.4,197.92c.05-3.74-2.76-6.75-6.42-6.86-3.79-.12-6.83,2.88-6.98,6.89-.15,3.96,2.37,6.87,6.08,7.03,4.18.17,7.26-2.79,7.32-7.06ZM759.1,333.17c-.08-3.64-3.14-6.79-6.6-6.77-3.73.01-6.82,3.3-6.75,7.18.08,3.85,2.8,6.57,6.6,6.59,3.94.01,6.84-2.98,6.75-6.99ZM480.9,459.3c.61.39,1.61,1.54,2.66,1.59,2.37.12,5.32.5,7.02-.68,2.47-1.72,4.49-4.53,5.74-7.3.38-.83-2.17-4.01-3.86-4.54-3.58-1.12-11.41,6.05-11.57,10.93ZM420.45,438.81c-2.34-3.1-3.73-5.74-5.87-7.45-1.1-.88-3.53-.09-5.36-.05.31,1.56.17,3.43,1.01,4.6,1.84,2.57,3.9,4.69.28,7.47-.7.54-.56,2.19-.81,3.32,1.34.14,3.29.91,3.91.3,2.35-2.29,4.27-5.02,6.85-8.2ZM558.65,426.24c-1.78-2.8-3.16-4.96-4.54-7.12-1.84,1.79-4.84,3.35-5.24,5.42-.63,3.27.39,6.9,1,10.33.08.43,2.66,1.03,2.89.71,2-2.81,3.73-5.82,5.89-9.34ZM564.07,451.29c.35.41.7.82,1.05,1.23,1.65-1.92,3.71-3.64,4.77-5.84.57-1.19-.18-4.34-.99-4.61-1.91-.63-4.47-.62-6.29.19-1.99.89-3.72,2.78-5.05,4.6-.82,1.13-.66,2.95-.94,4.47,1.61.2,3.22.51,4.84.56.86.03,1.74-.38,2.61-.6ZM230.04,561.88c-2.73-2.22-4.75-4.82-5.78-4.48-1.8.6-3.75,2.82-4.25,4.73-.69,2.64.98,5.3,4.03,4.72,1.85-.36,3.33-2.65,6.01-4.97ZM724.35,535.99c2.46-2.8,4.63-4.31,5.17-6.27.29-1.08-2.17-2.91-3.39-4.4-1.78,1.7-3.92,3.19-5.15,5.22-.39.65,1.64,2.75,3.37,5.45ZM471.3,231.73c-3.17-1.9-5.06-3.95-6.6-3.71-1.64.25-2.96,2.66-4.41,4.13,1.55,1.36,3.04,3.68,4.68,3.8,1.57.11,3.3-2.07,6.33-4.22ZM344.93,433.5c-2.89-1.91-4.61-3.94-6-3.73-1.47.22-3.35,2.44-3.63,4.04-.18,1,2.25,3.48,3.51,3.48,1.59,0,3.18-1.84,6.12-3.79ZM783.28,432.4c-1.58,3.07-3.21,4.83-3.06,6.43.11,1.18,2.71,3.16,3.88,2.95,1.33-.23,3.19-2.49,3.2-3.87,0-1.41-1.95-2.84-4.02-5.51ZM197.4,657.79c-2.41-1.74-3.94-3.69-5.2-3.53-1.39.18-3.72,2.53-3.52,3.51.32,1.59,2.18,3.54,3.75,3.96.99.26,2.64-2,4.97-3.94ZM365.7,871.99c1.75-2.31,3.73-3.79,3.66-5.16-.07-1.28-2.31-2.45-3.6-3.67-1.22,1.31-3.12,2.49-3.42,3.99-.21,1.09,1.7,2.59,3.35,4.84ZM340.91,514.67c-2.14-1.54-3.74-3.5-4.74-3.23-1.42.39-3.33,2.41-3.31,3.73.01,1.32,2.12,2.62,3.31,3.92,1.33-1.24,2.67-2.48,4.74-4.42ZM857.97,848.24c-2.81-1.78-4.28-3.44-5.68-3.38-1.17.05-3.29,2.29-3.13,3.24.25,1.46,1.95,3.46,3.31,3.71,1.19.21,2.76-1.69,5.49-3.57ZM228.96,605.6c-2.97-1.8-4.62-3.59-5.96-3.39-1.38.21-2.46,2.38-3.67,3.69,1.25,1.12,2.46,3.1,3.75,3.15,1.45.06,2.96-1.62,5.88-3.44ZM259.58,554.18c-2.45-1.52-4.11-3.31-5.12-3-1.41.43-2.34,2.44-3.47,3.77,1.27,1.02,2.53,2.82,3.81,2.83,1.25.02,2.52-1.79,4.79-3.61ZM664.72,471.65c-2.56-1.79-4.08-3.63-5.14-3.41-1.52.33-2.7,2.17-4.03,3.37,1.14,1.14,2.26,3.17,3.43,3.2,1.48.04,3.01-1.55,5.75-3.17ZM810.02,577.84c-1.53,2.61-3.16,4.18-3.07,5.63.07,1.16,2.24,2.2,3.48,3.29,1.18-1.35,3.04-2.59,3.31-4.1.19-1.05-1.82-2.48-3.72-4.81ZM291.6,819.97c-2.32-1.97-3.71-4.02-4.78-3.86-1.48.22-3.35,1.89-3.81,3.34-.27.85,1.77,3.42,2.91,3.51,1.45.11,3.04-1.5,5.68-3ZM242.85,372.21c1.91-2.34,3.79-3.64,3.77-4.9-.02-1.32-1.87-2.61-2.92-3.91-1.2,1.11-3.14,2.07-3.39,3.36-.25,1.25,1.24,2.85,2.54,5.45ZM394.31,237.28c-2.31-1.56-3.91-3.41-4.91-3.13-1.38.38-2.9,2.27-3.18,3.74-.15.8,2.15,2.86,3.37,2.88,1.25.02,2.53-1.76,4.73-3.49ZM636.03,520.85c-2.34-1.4-3.87-3.05-5.08-2.85-1.28.21-3.2,2.24-3.14,3.38.06,1.19,2.15,3.15,3.37,3.16,1.29.01,2.6-1.87,4.86-3.7ZM767.9,549.83c-1.6,2.06-3.42,3.38-3.37,4.62.05,1.21,2.01,2.34,3.13,3.5,1.16-1.29,2.8-2.43,3.28-3.94.25-.79-1.55-2.22-3.04-4.17ZM232.72,458.07c-1.55,2.29-3.44,3.89-3.17,4.98.34,1.42,2.38,2.43,3.7,3.62,1-1.29,2.77-2.57,2.8-3.89.03-1.27-1.73-2.59-3.32-4.71ZM649.24,437.41c1.39-2.54,2.94-4.1,2.73-5.35-.22-1.3-2.16-2.31-3.35-3.44-1.08,1.28-2.94,2.52-3,3.84-.06,1.25,1.79,2.59,3.62,4.94ZM833.42,465.93c-2.44-1.46-3.84-2.95-5.18-2.9-1.1.04-3.14,2.12-2.98,2.94.28,1.38,1.91,3.37,3.08,3.45,1.27.09,2.66-1.72,5.08-3.49ZM523.15,907.93c-2.09-1.66-3.47-3.51-4.37-3.3-1.38.32-2.85,1.9-3.4,3.29-.23.57,1.83,2.91,2.85,2.91,1.35,0,2.71-1.5,4.92-2.9ZM793.39,366.24c-2.05-1.79-3.37-3.72-4.25-3.53-1.42.3-2.97,1.78-3.61,3.16-.26.56,1.69,3.01,2.72,3.07,1.35.07,2.78-1.37,5.14-2.7ZM874.19,724.88c1.42-1.95,3.13-3.28,2.96-4.3-.22-1.32-1.93-2.39-3.01-3.57-1.04,1.2-2.72,2.29-2.93,3.62-.16,1.02,1.54,2.32,2.98,4.24ZM730.53,474.65c1.77-2.1,3.62-3.33,3.63-4.59.01-1.19-1.91-2.39-2.98-3.59-1.18,1.18-2.89,2.18-3.34,3.59-.29.88,1.32,2.37,2.69,4.58ZM858.47,510.5c.44-.86.88-1.71,1.32-2.57-1.48-.59-3.09-1.83-4.41-1.58-1.31.25-2.92,1.83-3.29,3.14-.24.86,1.49,3.21,2.34,3.22,1.34,0,2.69-1.4,4.04-2.21ZM661.65,887.31c1.61-2.53,3.1-3.87,3.1-5.22,0-1.03-1.87-2.89-2.91-2.89-1.11,0-3.07,1.71-3.11,2.74-.06,1.34,1.4,2.76,2.92,5.37ZM499.72,253.07c.49-.92.99-1.84,1.48-2.76-1.52-.58-3.14-1.78-4.54-1.57-1.38.21-3.04,1.64-3.61,2.96-.29.67,1.43,3.1,2.43,3.22,1.31.16,2.81-1.16,4.23-1.85ZM655.64,250.77c1.58-2.14,3.12-3.33,3.12-4.52,0-1.07-1.69-2.14-2.64-3.21-1.04,1.02-2.72,1.92-2.92,3.09-.19,1.08,1.2,2.43,2.44,4.64ZM303.37,241.3c-2.06-1.61-3.22-3.23-4.34-3.2-1.15.02-2.27,1.65-3.41,2.57.99,1.09,1.85,2.83,3.02,3.07,1.07.22,2.47-1.19,4.73-2.44ZM877.24,808.11c-1.58,2.19-3.14,3.44-3.27,4.82-.09.96,2.09,3.15,2.71,2.96,1.39-.41,3.05-1.8,3.42-3.12.26-.94-1.4-2.42-2.86-4.67ZM589.94,232.6c-1.92-1.48-3.19-3.2-4.25-3.08-1.08.12-2.54,1.95-2.74,3.21-.13.85,1.69,2.87,2.52,2.81,1.29-.1,2.47-1.53,4.47-2.94ZM223.69,508.2c-.44-.8-.88-1.6-1.33-2.4-1.25-.75-2.76-2.33-3.68-2.04-1.17.37-2.54,2.25-2.54,3.48,0,.94,1.94,2.56,3.11,2.65,1.43.11,2.95-1.07,4.43-1.69ZM497.89,185.7c1.59-2.5,2.89-3.76,3.08-5.16.11-.85-1.5-1.94-2.33-2.92-1.2,1.08-2.89,1.97-3.41,3.32-.31.8,1.22,2.31,2.66,4.77ZM763.27,514.05c-1.96-1.59-3.17-3.3-4.24-3.22-1.13.08-2.89,1.82-2.97,2.93-.07,1,1.66,2.84,2.79,3.02,1.06.16,2.38-1.38,4.43-2.73ZM595.29,887.85c-2.11-1.42-3.27-2.8-4.45-2.81-.95-.01-2.79,1.73-2.69,2.49.16,1.19,1.52,2.98,2.55,3.11,1.1.14,2.39-1.36,4.59-2.79ZM435.25,895.33c-1.75-1.3-3.04-2.89-3.79-2.67-1.29.38-2.24,1.9-3.33,2.94,1.04,1.06,2.03,2.88,3.13,2.95,1.05.06,2.22-1.7,3.99-3.22ZM278.1,602.2c1.15-2.04,2.44-3.3,2.26-4.29-.19-1.06-1.76-1.86-2.73-2.78-.86,1.02-2.35,2.01-2.39,3.05-.04,1.02,1.41,2.1,2.87,4.01ZM231.2,500.03c-1.76-1.33-2.88-2.83-3.84-2.73-1.1.11-2.05,1.65-3.07,2.56,1.05,1.06,1.95,2.59,3.21,3,.68.22,1.98-1.46,3.7-2.83ZM733.81,269.42c-1.83-1.44-2.9-2.7-4.24-3.12-.56-.18-2.54,1.87-2.41,2.1.7,1.28,1.69,2.64,2.93,3.27.55.28,1.94-1.12,3.72-2.25ZM664.16,171.99c-2.16-.99-3.35-2.02-4.13-1.77-1.15.37-2,1.65-2.98,2.54.82.8,1.82,2.39,2.44,2.25,1.31-.29,2.42-1.47,4.67-3.02ZM179.96,717.59c-1.4,1.87-2.66,2.83-2.74,3.89-.07.83,1.45,2.58,2.04,2.49,1.14-.18,2.75-1.21,3-2.18.23-.88-1.1-2.16-2.3-4.2Z"/>
  <path class="cls-1" d="M334.12,791.17c-93,7.79-185.36,15.53-277.73,23.27-.17-.52-.34-1.04-.52-1.55,2.37-.89,4.68-2.25,7.12-2.6,10.7-1.54,21.43-3.03,32.18-4.11,33.79-3.39,67.59-6.78,101.42-9.79,26.2-2.33,52.45-4.2,78.69-6,4.36-.3,7.48-1.66,10.22-4.99,4.13-5.01,8.24-10.14,13.05-14.45,5.94-5.33,4.82-10.82,2.04-16.88-8.24,1.51-16.35,3.25-24.53,4.44-22.33,3.24-38.49-4.22-48.2-22.05-6.32-11.6-5.67-23.84-2.19-35.91,5.69-19.74,17.15-36.57,29.93-52.08,25.63-31.1,52.47-61.2,78.45-92.02,10.29-12.2,22.59-21.38,36.37-29.15,13.74-7.74,26.88-16.54,40.52-24.48,5.13-2.98,10.92-4.84,15.75-6.93-3.71-8.95-7.36-17.8-11.05-26.64-1.62-3.88-.58-6.39,3.2-8.52,4.18-2.36,7.83-5.62,11.9-8.19,1.32-.83,3.24-.7,4.88-1.01-.28,1.65.03,3.92-.95,4.84-4.28,4.03-8.93,7.66-14.22,12.09,3.43,11.25,10.05,22.05,19.2,31.21,11.88,11.88,26.6,18.2,43.15,19.88,21.58,2.18,42.5.32,61.86-10.92,14.85-8.62,24.74-21.1,30.26-37.09,7.8-22.58,13.29-45.72,14.65-69.64.3-5.31-.84-10.71-1.34-16.36-10.76,2.88-20.29,5.43-29.3,7.84,4.67,1.23,9.98,2.24,14.95,4.15,1.72.66,2.59,3.54,3.84,5.41-1.95.63-4.04,2.08-5.82,1.75-9.72-1.78-19.37-3.16-29.23-.96-1.35.3-3.75-.32-4.29-1.28-.59-1.04.22-3.08.83-4.51.49-1.14,1.6-2,3-3.65-21.23-.78-40.78-4.96-57.42-18.81.93,1.13,1.69,2.46,2.81,3.35,6.25,4.97,12.53,9.92,18.95,14.67,1.2.89,3.07.98,4.67,1.19,2.14.28,4.6-.27,6.38.62,1.79.89,2.91,3.11,4.32,4.75-1.77,1.17-3.41,3.01-5.34,3.38-8.92,1.71-17.93,2.99-26.89,4.46-2.93.48-6.68,3.14-8.33-.97-1.75-4.36,2.8-5.41,5.58-6.79,3.24-1.6,6.76-2.64,10.97-4.23-12.52-8.89-22.26-19.7-29.89-33.78-4.82,24.37-13.04,45.81-31.39,63.86-.79-1.45-1.22-2.56-1.92-3.45-9.18-11.85-23.13-11.53-34.33-4.18-4.27,2.8-6.07,7.08-6.28,11.91-.57,13.08,2.06,24.9,13.93,32.74.34.23.49.75,1.05,1.65-10.42-.23-18.65-4.12-25.43-11.21-10.43-10.91-14.84-24.36-15.53-39.05-1.39-29.5,3.76-58.02,14.13-85.58,4.84-12.88,12.87-23.69,23.34-32.56,11.13-9.43,23.83-14.38,38.71-12.35,8.22,1.13,14.7,5,19.26,12.42,12.81-10.11,27.43-15.24,43.09-17.69,22.08-3.46,43.09.37,63.14,9.87,6.68,3.17,8.58,12.61,4.04,18.92-1.72,2.39-3.76,4.57-4.99,7.85,1.66-.8,3.36-1.53,4.97-2.42,7.03-3.87,14.65-5.85,22.55-5.21,13.54,1.1,23.08,11.55,24.22,27.32,1.2,16.66.35,33.33-4.69,49.46-2.6,8.31-7.19,15.41-14.77,20.1-2.09,1.29-4.59,1.92-6.43,2.66-2.58,15.4-4.85,31.02-7.92,46.49-1.58,7.95-4.21,15.76-7.02,23.39-5.96,16.17-16.07,29.04-31.08,37.11,36.94,24.52,73.97,49.11,111.42,73.97-.85.6-.4.44-.39.25.5-7.59,1.49-8.34,9.24-6.92.82.15,1.66.23,2.44.49,6.39,2.15,11.21,1.58,14.95-5.33,2.85-5.25,8.61-7.8,14.85-7.79,2.43,0,5.99.02,7.09,1.49,3.8,5.07,9.18,3.01,13.74,4.41,7.37,2.27,14.15,6.34,22.13,7.07,1.82.17,3.46,2.4,5.17,3.71,1.03.79,1.96,2.25,3.04,2.35,6.42.6,8.46,5.4,10.01,10.39,1.18,3.79,2.07,7.79,2.26,11.73.2,4.13,1.57,6.03,5.8,6.95,20.96,4.53,41.82,9.48,62.76,14.07,3.75.82,4.85,2.71,4.87,6.22.22,34.48.53,68.96.78,103.44.06,8.98,0,17.95,0,27.77,7.81-.97,15.14-1.81,22.45-2.82,12.86-1.78,25.69-3.74,38.56-5.4,1.95-.25,4.06.72,6.09,1.12-1.89.93-3.69,2.37-5.69,2.73-18.99,3.42-38,6.76-57.04,9.84-3.39.55-4.37,1.75-4.34,5.06.13,13.16-.07,26.33.01,39.49.02,3.69-.79,6.98-4.54,7.95-4.42,1.14-8.8,5.48-13.69.25-3.96-4.24-8.04-9.76-13.07-11.2-5-1.43-11.26,1.52-16.97,2.56-55.66,10.13-111.33,20.2-166.97,30.4-36.5,6.69-72.95,13.63-109.46,20.26-3.11.56-6.59.03-9.72-.71-3.5-.83-5.32-3.09-5.28-7.28.4-36.15.64-72.31.77-108.46.09-23.66-.03-47.32-.2-70.99-.03-4.15,1.61-6.11,5.69-6.54,17.21-1.82,34.41-3.77,51.62-5.63,30.12-3.25,60.24-6.54,90.37-9.68,24.5-2.55,49.03-4.87,73.54-7.35,20.28-2.05,40.54-4.18,61.33-6.33-10.86-4.72-21.49-2.27-31.97-1.33-37.82,3.4-75.63,7.01-113.43,10.66-32,3.09-63.98,6.32-95.96,9.55-19.55,1.98-39.09,4.07-58.64,6.12-.9.09-1.79.28-3.13.5.74.67,1.04,1.2,1.43,1.26,8.4,1.33,9.32,7.03,9.37,14.27.44,57.64,1.16,115.27,1.78,172.91.03,3,.07,6.01-.1,9-.31,5.38-4.1,8.13-9.25,6.32-5.47-1.93-10.75-4.42-16.1-6.71-39.76-17.02-79.51-34.05-119.27-51.08-1.38-.59-2.72-1.27-4.12-1.79-6.43-2.34-9.71-6.59-8.91-13.71.35-3.08.06-6.23.06-10.51ZM793.18,661.63c-4.07.38-6.54.57-9,.86-26.61,3.12-53.22,6.27-79.83,9.38-29.43,3.45-58.86,6.84-88.28,10.31-29.58,3.49-59.15,7.11-88.74,10.56-7.7.9-7.75.71-7.77,8.45-.1,45.1-.19,90.2-.27,135.3,0,4.43,0,8.86,0,14.16,6.96-1.31,12.95-2.44,18.94-3.58,49.65-9.42,99.3-18.86,148.96-28.25,33.96-6.42,67.91-12.93,101.93-19,5.25-.94,6.29-3.02,6.18-7.77-.82-35.62-1.46-71.25-2.09-106.88-.14-7.61-.02-15.22-.02-23.56ZM545.41,521.79c-.92,3.13-1.64,5.85-2.5,8.51-6.54,20.26-18.86,35.27-38.94,43.5-11.55,4.74-23.52,5.57-35.78,5.23-32.95-.92-59.26-21.29-68.29-53.05-.7-2.46-1.45-4.91-2.26-7.63-3.91,2.31-7.24,4.52-10.78,6.33-22.03,11.25-40.99,25.93-57.21,45-25.99,30.58-53.85,59.59-77.04,92.49-8.64,12.26-16.75,24.88-21.08,39.47-7.21,24.28,5.74,47.61,29.19,50.73,8.84,1.17,18.34-.09,27.19-1.9,26.66-5.46,51.82-15.71,77.01-25.72,3.01-1.19,5.96-2.53,10.01-4.27-8.94-1.71-13.19-6.85-15.96-13.75-5.99-14.94-5.44-29.57,1.7-43.96,1.74-3.5,3.68-6.9,5.57-10.43-.65-.15-1-.36-1.26-.28-28.88,8.99-57.75,18.01-86.64,26.98-1.66.51-3.44.64-5.16.94-.22-.61-.43-1.22-.65-1.83,2.77-1.55,5.39-3.51,8.33-4.59,14.82-5.46,29.66-10.9,44.63-15.92,12.22-4.1,12.31-3.84,12.37-16.78.04-7.87,1.49-9.38,9.59-9.9,10.3-.67,20.61-1.36,30.92-1.91,3.84-.2,6.81-1.41,9.58-4.36,6.54-6.96,14.74-11.62,24.13-13.24,9.57-1.65,18.68-.67,26.8,6.1,4.39,3.66,10.24,5.05,16.36,4.33,20.33-2.38,40.68-4.59,61.03-6.85,3.88-.43,7.64-.71,10.23,3.3.5.77,2.38.88,3.62.89,3.83,0,7.66-.13,11.49-.32,7.75-.4,15.5-.88,23.07-1.31,2.48-11.91,3.29-12.66,15.19-14.47.33-.05.66-.08.99-.11,22.08-1.66,44.17-3.3,66.25-4.98,2.99-.23,5.97-.59,10.21-1.01-35.97-28.71-73-53.1-111.96-75.21ZM474.02,854.65c.15-2.39.32-3.7.31-5.01-.39-51.63-1-103.26-.97-154.88,0-8.01-2.55-11.91-9.86-14.34-3.63-1.21-6.07-1.36-8.94,1.16-4.38,3.84-8.87,7.58-13.61,10.96-1.3.93-3.63.42-5.48.57.51-1.72.48-4.06,1.62-5.05,6.66-5.74,13.53-11.25,20.47-16.66,3.01-2.34,6.58-3.99,9.46-6.45,2.41-2.06,4.41-4.98,2.22-8.34-2.18-3.34-5.5-3.35-8.9-2.03-1.39.54-2.81,1.13-4.02,1.98-8.43,5.92-16.83,11.9-25.21,17.88-2.12,1.51-4.57,3.24-6.36.35-.62-1,.62-4.22,1.93-5.21,8.73-6.62,17.73-12.89,26.59-19.35,1.7-1.24,3.15-2.84,4.71-4.27-2.02-1.6-3.83-3.77-6.13-4.64-1.78-.67-4.35-.18-6.24.6-3.35,1.4-6.56,3.24-9.64,5.2-6.59,4.21-12.96,8.78-19.66,12.81-1.38.83-3.8-.07-5.74-.17.7-1.46,1.02-3.45,2.17-4.3,6.66-4.96,13.44-9.79,20.36-14.38,3.59-2.38,7.67-4.02,11.31-6.35,1.19-.76,2.53-2.88,2.25-3.97-.38-1.45-2.25-3.53-3.52-3.56-4.05-.09-8.65-.42-12.09,1.26-9.08,4.46-17.59,10.05-26.48,14.91-1.73.95-4.16.63-6.26.9.85-1.93,1.17-4.65,2.65-5.64,7.56-5.1,15.41-9.77,23.19-14.55,1.74-1.07,3.59-1.96,5.39-2.94-.03-.53-.05-1.06-.08-1.59-3.08-.9-6.11-2.31-9.24-2.6-7.23-.66-13.8,1.75-19.8,5.65-12.76,8.29-19.82,20.8-25.31,34.43-1.18,2.93-2.09,5.97-3.29,8.89-.32.78-1.25,1.32-1.9,1.97-.64-.79-1.34-1.53-1.88-2.37-.35-.54-.47-1.24-.97-2.66-6.83,13.02-7.73,25.49-2.82,38.35,4.52,11.84,10.22,14.8,22.57,11.31,5.75-1.62,11.35-3.8,17-5.76,3.61-1.26,7.15-2.75,10.81-3.82,1.17-.34,2.63.34,3.96.55-.57,1.18-.87,2.69-1.78,3.48-1.35,1.17-3.08,1.98-4.75,2.7-20.9,9.07-41.79,18.15-62.75,27.08-2.3.98-3.33,1.99-3.36,4.64-.21,15.99-.12,32.01-1.18,47.95-.54,8.15,2.67,11.77,9.69,14.69,33.32,13.86,66.47,28.13,99.68,42.24,6.38,2.71,12.78,5.39,19.88,8.38ZM708.02,577.89c-5.5-3.54-9.83-3.97-14.19.41-3.46,3.46-5.89,8.24-7.87,12.82-2.52,5.81-6.14,11.99-15.03,11.96-12.97-.05-25.95,1.15-38.9,2.05-15.92,1.11-31.88,2.06-47.73,3.83-11.18,1.25-11.12,1.82-12.73,13.17-.07.49-.22.98-.28,1.47-.88,7.06-1.75,14.13-2.44,19.65,3.88,3.75,6.8,6.58,9.8,9.47.05-.19.27-.9.44-1.61,2.29-9.87,4.6-19.74,6.84-29.63.74-3.27,2.38-5.25,5.96-5.66,6.77-.78,13.48-2.11,20.26-2.71,22.72-2.03,45.45-3.84,68.18-5.73,17.25-1.44,34.51-2.85,51.76-4.3,3.29-.28,5.55.55,5.39,4.94-1.58.31-3.14.78-4.72.9-30.88,2.38-61.77,4.55-92.63,7.16-14.58,1.23-29.1,3.18-43.61,5.11-1.84.24-4.55,2.06-4.96,3.64-2.45,9.47-4.34,19.08-6.42,28.66,9.76,1.35,11.23.48,14.61-8.11,2.32-5.88,4.6-11.78,7.31-17.47.62-1.31,2.96-1.81,4.51-2.68.17,1.61.89,3.41.42,4.81-2.41,7.22-5.13,14.34-7.99,22.21,6.31-.53,12.07-.88,17.77-1.64.97-.13,2.08-1.92,2.47-3.15,1.42-4.43,2.79-8.9,3.75-13.44.95-4.49,3.72-6.51,7.96-6.87,3.81-.33,7.65-.33,11.47-.65,31.02-2.61,62.03-5.26,93.05-7.91,5.76-.49,11.51-1.01,17.36-1.53-.66-5.88-.97-11.19-1.97-16.38-.43-2.2-2.3-4.13-3.52-6.18-1.83,1.27-3.93,2.29-5.43,3.88-1.95,2.08-3.42,4.61-5.2,7.08q-3.3-3.83,2.93-15.02c-5.18-4.84-10.46-5.15-15.33-.37-2.2,2.15-3.47,5.23-5.47,7.62-1.17,1.4-2.94,2.29-4.44,3.41-.49-1.85-1.92-4.14-1.3-5.46,2-4.25,4.77-8.15,7.27-12.24-4.37-3.47-9.38-3.63-14.24,1.24-3.53,3.54-5.63,8.47-8.66,12.57-.89,1.2-2.76,1.67-4.18,2.48-.56-1.41-1.83-2.99-1.54-4.2.68-2.85,1.71-5.79,3.34-8.2,2.21-3.27,5.1-6.08,7.95-9.39ZM771.17,634.87c-.08.56-.17,1.11-.25,1.67,1.8.5,3.59,1.08,5.41,1.47,8.77,1.89,17.5,4.02,26.33,5.48,5.09.84,6.13,3.22,6.15,8.07.17,51.11.6,102.23,1.01,153.34,0,1.24.21,2.91,1,3.63,3.73,3.4,7.7,6.54,12.5,10.54,0-3.65.02-6.11,0-8.57-.45-53.63-.94-107.26-1.27-160.9-.02-3.66-1.52-5-4.69-5.67-13.98-2.98-27.95-6.06-41.93-9.03-1.36-.29-2.84-.04-4.27-.04ZM629.83,649.38c1.57-.07,2.54-.07,3.5-.16,20.87-2.04,41.74-4.12,62.62-6.15,21.71-2.11,43.42-4.16,65.13-6.31,1.21-.12,3.16-.64,3.4-1.41,1.2-3.82,1.95-7.78,2.95-12.1-2.62,0-4.27-.1-5.9.02-16.78,1.22-33.55,2.5-50.32,3.7-23.75,1.7-47.51,3.26-71.25,5.16-2.06.16-4.88,1.95-5.74,3.74-1.95,4.1-2.9,8.68-4.4,13.51ZM537.31,521.14c-5.86.19-9.42,2.2-10.61,7.7-.44,2.03-1.82,3.92-2.99,5.72-15.23,23.48-36.89,29.91-62.94,25.55-25.84-4.32-40.48-21.85-47.58-46.3-.39-1.34-.76-2.69-1.15-4.09q-8.29,3.22-6.36,11.31c2.26,9.52,6.21,18.19,12.41,25.86,22.7,28.07,59.15,28.97,84.17,18.91,19.79-7.96,30.39-23.82,35.05-44.68ZM519.43,526.15c-5.71-.19-10.38-.53-13.09,5.37-1.16,2.51-3.9,4.57-6.35,6.17-14.89,9.68-41.35,8.14-55.17-3.06-9.8-7.94-16.21-17.94-17.98-30.54-7.52,1.04-7.86,1.51-6.24,8.04,9.12,36.85,43.18,48.7,74.65,37.24,10.98-4,18.78-12.1,24.18-23.21ZM463.45,642.96c1.48,2.09,1.97,3.57,2.92,3.99,5.19,2.32,10.05,4.99,16.44,3.56,7.25-1.63,14.83-1.82,22.29-2.46,13.59-1.17,27.2-2.14,40.78-3.34,5.03-.44,5.76-1.93,4.7-6.81-.91-4.21-4.05-2.78-6.37-2.61-15.26,1.16-30.51,2.42-45.75,3.85-11.22,1.06-22.41,2.43-35.02,3.82ZM307.03,751.75c4.45,16.24,15.64,31.55,27.36,31.51v-40.67c-9.3,3.12-18.34,6.14-27.36,9.16ZM521.92,630.86c.6-9.7-.07-10.39-9.03-9.75-3.99.28-7.98.53-11.95.93-15.37,1.53-30.74,3.12-46.32,4.71-.24,2.9-.42,5.17-.6,7.3,5.71,2.93,5.72,3.02,16,2.03,17.2-1.66,34.4-3.45,51.9-5.22ZM500.72,527.86c-25.74.41-48.82-5.87-67.35-25.83,1.84,15.32,13.13,28.6,27.83,32.35,13.85,3.53,27.44,3.23,39.52-6.52ZM831.99,639.77c-.72.06-1.45.12-2.17.18v180.57c.62.14,1.25.28,1.87.41.64-1.24,1.85-2.48,1.83-3.71-.68-59.15-.14-118.32-1.53-177.45ZM475.41,665.79c32.3-3.53,63.93-7,96-10.51-2.37-4.95-6.39-4.16-9.76-3.94-27.06,1.76-54.12,3.66-81.16,5.73-1.3.1-2.75,2.01-3.59,3.41-.81,1.36-.92,3.14-1.49,5.3ZM528.72,629.86c1.18.09,1.83.19,2.49.18,8.7-.18,17.23-2.39,26.17-.3,5.91,1.39,7.23-.74,6.22-5.01h-34.87v5.12ZM485,352.92c.26,6.15,3.3,9.62,6.82,12.59,10.59,8.91,22.72,14.95,36.13,18.26,3.44.85,7.1.82,10.66,1.2.06-.43.12-.86.18-1.29-20.83-4.41-40.45-10.92-53.79-30.75ZM666.79,596.15c3.16-.14,6.18.18,8.89-.58,1.4-.4,2.56-2.62,3.17-4.26.17-.46-1.85-2.28-3.1-2.61-2.61-.71-5.38-.84-8.48-1.27-.17,3.09-.3,5.52-.48,8.72ZM402.41,313.31c-8.88,6.09-19.9,29.79-17.96,38.08,2.38-6.72,4.15-13.28,7-19.33,2.92-6.21,6.9-11.91,10.96-18.75ZM362.95,635.05c-.11.54-.23,1.08-.34,1.61,4.68.93,9.33,2.06,14.05,2.61.73.08,1.76-2.46,2.94-4.22h-16.65ZM358.84,648.33l.06-1.17c-3.41-1.44-6.83-2.89-10.79-4.56v8.49c3.85-.99,7.29-1.87,10.74-2.76ZM557.28,635.89c0,2.52-.28,4.56.11,6.47.22,1.09,1.51,1.96,2.32,2.93.8-1.01,2.02-1.91,2.31-3.04.52-2.01.49-4.17.72-6.61-1.92.09-3.52.17-5.46.26ZM394.27,366.55c7.89,1.92,15.49-1.57,15.22-5.93-4.85,1.89-9.98,3.89-15.22,5.93ZM406.78,375.33c-4.55,1.96-9.18,3.95-14.13,6.09,7.03,1.33,12.38-1.13,14.13-6.09Z"/>
  <path class="cls-1" d="M237.63,840.12c23.11,0,46.21-.06,69.32.1,2.1.01,4.71.88,6.18,2.29,6.84,6.56,13.51,13.33,19.95,20.29,4.38,4.73,3.53,6.49-2.91,8.06-13.71,3.34-27.52,6.39-41.05,10.37-6.93,2.04-13.54,5.48-19.93,8.95-3.67,2-5.73,2.02-8.19-1.57-7.44-10.83-15.04-21.56-22.81-32.15-2.94-4-6.63-7.45-9.75-11.33-.89-1.1-1.73-3.18-1.25-4.19.51-1.1,2.52-1.88,3.98-2.07,2.11-.27,4.31.11,6.47.22,0,.34,0,.69,0,1.03ZM266.36,884.93c18.57-11.28,39.7-13.99,60.8-19.53-5.25-5.56-10.11-10.5-14.72-15.67-2.4-2.69-4.97-3.68-8.65-3.72-20.62-.2-41.23-.73-61.84-1.15-1.56-.03-3.12,0-4.65,0,9.76,13.46,19.28,26.59,29.06,40.06Z"/>
  <path class="cls-1" d="M272.25,525.71c-.42-1.78-1.15-3.56-1.18-5.35-.07-4.32.32-8.65.29-12.97-.08-10.6-5.77-16.34-16.3-16.59-1-.02-2.06.23-2.98-.04-1.27-.37-2.43-1.13-3.63-1.72.85-1.21,1.45-2.83,2.6-3.53,2.4-1.45,5.11-2.37,7.67-3.57,8.56-4.02,11.52-9.83,10.01-19.33-.36-2.28-.7-4.67-.37-6.9.2-1.35,1.73-2.49,2.66-3.73,1.31,1.02,3.32,1.79,3.81,3.12,1.38,3.72,2.14,7.66,3.14,11.52,2.62,10.12,8.91,16.22,19.38,15.9,1.2-.04,2.44,1.08,3.66,1.66-.93,1.21-1.61,2.85-2.83,3.52-2,1.1-4.32,1.67-6.55,2.28-8.02,2.18-12.25,7.3-12.95,15.63-.4,4.79-.74,9.6-1.55,14.33-.36,2.09-1.81,3.99-2.76,5.98-.7-.07-1.4-.15-2.1-.22Z"/>
  <path class="cls-1" d="M693.47,444.86c-.45-1.92-1.25-3.84-1.29-5.77-.1-4.49.31-9,.25-13.49-.13-9.74-5.79-15.44-15.51-15.8-1.5-.06-3.05.25-4.48-.07-1.1-.25-2.7-1.08-2.87-1.9-.18-.87.81-2.48,1.73-3,2.59-1.48,5.32-2.81,8.14-3.75,8.49-2.85,11.05-9.04,10.07-19.23-.21-2.15-.68-4.37-.3-6.43.28-1.54,1.71-2.87,2.63-4.29,1.28,1.06,3.2,1.88,3.71,3.23,1.44,3.88,2.21,8.01,3.42,11.99,3.32,10.85,7.54,14.2,18.78,15.47,1.38.16,2.65,1.31,3.98,2.01-1.06,1.11-1.93,2.58-3.22,3.23-2.05,1.03-4.37,1.56-6.6,2.22-7.38,2.16-11.4,6.98-12.08,14.72-.37,4.15-.26,8.35-.94,12.44-.48,2.92-1.91,5.69-2.92,8.52-.83-.03-1.66-.05-2.49-.08Z"/>
  <path class="cls-1" d="M539.01,428.43c-.56,6.81,1.41,13.61,4.79,20.36,5.65,11.27-.38,22.89-11.93,23.93-6.73.61-12.55-3.66-13.16-10.06-.16-1.67,1.14-3.49,1.77-5.24,1.28.96,2.97,1.65,3.78,2.91,3.65,5.68,6.17,7.03,10.26,5.01,4.6-2.28,6.43-7.6,3.32-12.84-4.71-7.94-6.14-16.36-5.66-25.33.06-1.16-.17-2.5.33-3.44,1.17-2.16,2.81-5.92,4.07-5.84,3.88.23,2.12,3.96,2.41,6.36.14,1.15.02,2.32.02,4.18Z"/>
  <path class="cls-1" d="M518.2,495.06c-8.41-1.02-15.02-8.14-14.15-16.04.12-1.07,1.22-2.02,1.87-3.03.93.74,2.29,1.3,2.72,2.26,4.97,11.08,7.67,12.16,18.93,7.26.92-.4,1.78-1.05,2.73-1.2,1.61-.26,3.26-.21,4.9-.29-.78,1.78-1.08,4.51-2.42,5.18-4.67,2.34-9.69,3.96-14.58,5.86Z"/>
  <path class="cls-1" d="M509.16,430.17c-1.55,3.84-2.52,7-4.11,9.82-.66,1.16-2.82,2.39-3.97,2.13-1.49-.34-3.64-2.05-3.75-3.32-.29-3.35-.32-7.06.89-10.09.82-2.07,4.06-4.6,5.94-4.4,1.8.19,3.25,3.66,5,5.86Z"/>
  <path class="cls-1" d="M299.39,315.63c-.04,3.78-3.21,7-6.97,7.07-3.88.08-6.76-2.94-6.7-7.03.06-4.17,2.8-6.99,6.78-7,3.87,0,6.93,3.08,6.89,6.96Z"/>
  <path class="cls-1" d="M400.4,197.92c-.06,4.26-3.14,7.23-7.32,7.06-3.71-.15-6.23-3.06-6.08-7.03.15-4.01,3.18-7.01,6.98-6.89,3.66.11,6.48,3.12,6.42,6.86Z"/>
  <path class="cls-1" d="M759.1,333.17c.09,4.01-2.81,7-6.75,6.99-3.79-.01-6.52-2.74-6.6-6.59-.08-3.87,3.02-7.16,6.75-7.18,3.46-.01,6.52,3.13,6.6,6.77Z"/>
  <path class="cls-1" d="M480.9,459.3c.16-4.88,7.99-12.05,11.57-10.93,1.7.53,4.24,3.71,3.86,4.54-1.25,2.78-3.27,5.58-5.74,7.3-1.7,1.18-4.65.8-7.02.68-1.05-.06-2.05-1.2-2.66-1.59Z"/>
  <path class="cls-1" d="M420.45,438.81c-2.58,3.18-4.5,5.91-6.85,8.2-.62.6-2.57-.17-3.91-.3.25-1.14.1-2.78.81-3.32,3.63-2.78,1.56-4.91-.28-7.47-.84-1.17-.7-3.05-1.01-4.6,1.83-.04,4.26-.82,5.36.05,2.14,1.71,3.53,4.35,5.87,7.45Z"/>
  <path class="cls-1" d="M558.65,426.24c-2.16,3.52-3.88,6.52-5.89,9.34-.23.32-2.81-.28-2.89-.71-.62-3.42-1.63-7.05-1-10.33.4-2.07,3.4-3.63,5.24-5.42,1.38,2.16,2.76,4.32,4.54,7.12Z"/>
  <path class="cls-1" d="M564.07,451.29c-.87.21-1.75.63-2.61.6-1.62-.05-3.23-.36-4.84-.56.28-1.51.13-3.34.94-4.47,1.33-1.83,3.05-3.72,5.05-4.6,1.82-.81,4.38-.82,6.29-.19.81.27,1.57,3.42.99,4.61-1.07,2.2-3.13,3.92-4.77,5.84-.35-.41-.7-.82-1.05-1.23Z"/>
  <path class="cls-1" d="M230.04,561.88c-2.68,2.32-4.16,4.61-6.01,4.97-3.04.58-4.72-2.08-4.03-4.72.5-1.91,2.45-4.12,4.25-4.73,1.03-.35,3.05,2.26,5.78,4.48Z"/>
  <path class="cls-1" d="M724.35,535.99c-1.73-2.69-3.76-4.8-3.37-5.45,1.23-2.04,3.36-3.52,5.15-5.22,1.22,1.49,3.69,3.32,3.39,4.4-.54,1.96-2.71,3.47-5.17,6.27Z"/>
  <path class="cls-1" d="M471.3,231.73c-3.03,2.15-4.77,4.33-6.33,4.22-1.64-.12-3.13-2.44-4.68-3.8,1.46-1.47,2.77-3.87,4.41-4.13,1.54-.24,3.43,1.81,6.6,3.71Z"/>
  <path class="cls-1" d="M344.93,433.5c-2.95,1.95-4.54,3.79-6.12,3.79-1.26,0-3.69-2.47-3.51-3.48.28-1.6,2.16-3.82,3.63-4.04,1.38-.21,3.11,1.82,6,3.73Z"/>
  <path class="cls-1" d="M783.28,432.4c2.07,2.67,4.03,4.1,4.02,5.51,0,1.39-1.87,3.65-3.2,3.87-1.18.2-3.77-1.77-3.88-2.95-.15-1.6,1.49-3.36,3.06-6.43Z"/>
  <path class="cls-1" d="M197.4,657.79c-2.32,1.93-3.98,4.2-4.97,3.94-1.57-.42-3.43-2.37-3.75-3.96-.2-.98,2.13-3.33,3.52-3.51,1.26-.16,2.79,1.79,5.2,3.53Z"/>
  <path class="cls-1" d="M365.7,871.99c-1.65-2.25-3.57-3.75-3.35-4.84.29-1.5,2.2-2.67,3.42-3.99,1.29,1.22,3.53,2.39,3.6,3.67.07,1.37-1.91,2.85-3.66,5.16Z"/>
  <path class="cls-1" d="M340.91,514.67c-2.08,1.93-3.41,3.18-4.74,4.42-1.19-1.31-3.3-2.6-3.31-3.92-.01-1.31,1.89-3.34,3.31-3.73.99-.27,2.6,1.69,4.74,3.23Z"/>
  <path class="cls-1" d="M857.97,848.24c-2.74,1.89-4.3,3.79-5.49,3.57-1.36-.24-3.06-2.25-3.31-3.71-.16-.95,1.96-3.19,3.13-3.24,1.39-.06,2.87,1.6,5.68,3.38Z"/>
  <path class="cls-1" d="M228.96,605.6c-2.92,1.82-4.44,3.5-5.88,3.44-1.29-.05-2.5-2.02-3.75-3.15,1.21-1.31,2.29-3.48,3.67-3.69,1.34-.2,2.99,1.59,5.96,3.39Z"/>
  <path class="cls-1" d="M259.58,554.18c-2.27,1.81-3.54,3.62-4.79,3.61-1.28-.02-2.54-1.81-3.81-2.83,1.13-1.33,2.06-3.34,3.47-3.77,1.01-.31,2.67,1.48,5.12,3Z"/>
  <path class="cls-1" d="M664.72,471.65c-2.74,1.61-4.26,3.2-5.75,3.17-1.17-.03-2.29-2.06-3.43-3.2,1.33-1.2,2.52-3.05,4.03-3.37,1.07-.23,2.58,1.61,5.14,3.41Z"/>
  <path class="cls-1" d="M810.02,577.84c1.89,2.33,3.9,3.77,3.72,4.81-.27,1.52-2.13,2.75-3.31,4.1-1.24-1.09-3.41-2.12-3.48-3.29-.09-1.45,1.54-3.02,3.07-5.63Z"/>
  <path class="cls-1" d="M291.6,819.97c-2.64,1.5-4.23,3.11-5.68,3-1.14-.09-3.18-2.66-2.91-3.51.46-1.45,2.33-3.12,3.81-3.34,1.06-.16,2.46,1.89,4.78,3.86Z"/>
  <path class="cls-1" d="M242.85,372.21c-1.3-2.6-2.79-4.19-2.54-5.45.25-1.29,2.19-2.25,3.39-3.36,1.05,1.3,2.9,2.59,2.92,3.91.02,1.27-1.86,2.56-3.77,4.9Z"/>
  <path class="cls-1" d="M394.31,237.28c-2.2,1.73-3.47,3.5-4.73,3.49-1.21-.02-3.52-2.08-3.37-2.88.28-1.47,1.8-3.36,3.18-3.74,1.01-.28,2.6,1.57,4.91,3.13Z"/>
  <path class="cls-1" d="M636.03,520.85c-2.25,1.83-3.56,3.71-4.86,3.7-1.22-.01-3.31-1.97-3.37-3.16-.06-1.14,1.86-3.17,3.14-3.38,1.22-.2,2.74,1.45,5.08,2.85Z"/>
  <path class="cls-1" d="M767.9,549.83c1.49,1.95,3.29,3.39,3.04,4.17-.48,1.51-2.12,2.65-3.28,3.94-1.12-1.16-3.08-2.29-3.13-3.5-.05-1.24,1.76-2.56,3.37-4.62Z"/>
  <path class="cls-1" d="M232.72,458.07c1.59,2.13,3.35,3.44,3.32,4.71-.03,1.32-1.79,2.59-2.8,3.89-1.31-1.19-3.35-2.2-3.7-3.62-.26-1.09,1.62-2.69,3.17-4.98Z"/>
  <path class="cls-1" d="M649.24,437.41c-1.83-2.36-3.68-3.69-3.62-4.94.06-1.32,1.93-2.57,3-3.84,1.19,1.13,3.12,2.14,3.35,3.44.22,1.25-1.34,2.81-2.73,5.35Z"/>
  <path class="cls-1" d="M833.42,465.93c-2.41,1.77-3.81,3.58-5.08,3.49-1.18-.08-2.8-2.07-3.08-3.45-.16-.82,1.87-2.9,2.98-2.94,1.34-.05,2.75,1.44,5.18,2.9Z"/>
  <path class="cls-1" d="M523.15,907.93c-2.21,1.4-3.57,2.9-4.92,2.9-1.02,0-3.07-2.33-2.85-2.91.55-1.39,2.02-2.97,3.4-3.29.9-.21,2.28,1.64,4.37,3.3Z"/>
  <path class="cls-1" d="M793.39,366.24c-2.35,1.33-3.79,2.78-5.14,2.7-1.03-.06-2.98-2.51-2.72-3.07.64-1.38,2.19-2.87,3.61-3.16.88-.18,2.19,1.74,4.25,3.53Z"/>
  <path class="cls-1" d="M874.19,724.88c-1.43-1.92-3.13-3.23-2.98-4.24.2-1.33,1.88-2.42,2.93-3.62,1.07,1.18,2.78,2.25,3.01,3.57.17,1.02-1.53,2.35-2.96,4.3Z"/>
  <path class="cls-1" d="M730.53,474.65c-1.38-2.21-2.98-3.7-2.69-4.58.46-1.41,2.17-2.42,3.34-3.59,1.07,1.2,2.99,2.4,2.98,3.59-.01,1.25-1.86,2.49-3.63,4.59Z"/>
  <path class="cls-1" d="M858.47,510.5c-1.35.81-2.7,2.22-4.04,2.21-.85,0-2.58-2.36-2.34-3.22.37-1.31,1.98-2.9,3.29-3.14,1.33-.25,2.93.99,4.41,1.58-.44.86-.88,1.71-1.32,2.57Z"/>
  <path class="cls-1" d="M661.65,887.31c-1.52-2.61-2.97-4.02-2.92-5.37.05-1.03,2.01-2.74,3.11-2.74,1.04,0,2.91,1.85,2.91,2.89,0,1.35-1.5,2.69-3.1,5.22Z"/>
  <path class="cls-1" d="M499.72,253.07c-1.42.69-2.92,2.01-4.23,1.85-1-.12-2.72-2.55-2.43-3.22.57-1.31,2.22-2.74,3.61-2.96,1.4-.21,3.02.99,4.54,1.57-.49.92-.99,1.84-1.48,2.76Z"/>
  <path class="cls-1" d="M655.64,250.77c-1.24-2.21-2.63-3.56-2.44-4.64.21-1.16,1.89-2.07,2.92-3.09.95,1.07,2.64,2.14,2.64,3.21,0,1.19-1.55,2.37-3.12,4.52Z"/>
  <path class="cls-1" d="M303.37,241.3c-2.26,1.24-3.66,2.65-4.73,2.44-1.17-.24-2.02-1.98-3.02-3.07,1.13-.92,2.25-2.54,3.41-2.57,1.12-.02,2.28,1.59,4.34,3.2Z"/>
  <path class="cls-1" d="M877.24,808.11c1.46,2.25,3.12,3.73,2.86,4.67-.37,1.32-2.03,2.7-3.42,3.12-.62.19-2.8-2-2.71-2.96.13-1.38,1.69-2.64,3.27-4.82Z"/>
  <path class="cls-1" d="M589.94,232.6c-2,1.41-3.18,2.84-4.47,2.94-.83.06-2.66-1.96-2.52-2.81.2-1.26,1.66-3.09,2.74-3.21,1.07-.12,2.33,1.6,4.25,3.08Z"/>
  <path class="cls-1" d="M223.69,508.2c-1.48.62-3.01,1.79-4.43,1.69-1.17-.09-3.11-1.71-3.11-2.65,0-1.23,1.37-3.12,2.54-3.48.92-.29,2.43,1.29,3.68,2.04.44.8.88,1.6,1.33,2.4Z"/>
  <path class="cls-1" d="M497.89,185.7c-1.44-2.45-2.97-3.97-2.66-4.77.52-1.34,2.21-2.23,3.41-3.32.84.98,2.45,2.07,2.33,2.92-.19,1.41-1.5,2.66-3.08,5.16Z"/>
  <path class="cls-1" d="M763.27,514.05c-2.05,1.35-3.37,2.89-4.43,2.73-1.13-.17-2.86-2.01-2.79-3.02.08-1.12,1.84-2.86,2.97-2.93,1.08-.08,2.28,1.64,4.24,3.22Z"/>
  <path class="cls-1" d="M595.29,887.85c-2.19,1.43-3.49,2.93-4.59,2.79-1.03-.13-2.39-1.91-2.55-3.11-.1-.76,1.74-2.5,2.69-2.49,1.18.01,2.34,1.39,4.45,2.81Z"/>
  <path class="cls-1" d="M435.25,895.33c-1.77,1.52-2.93,3.28-3.99,3.22-1.1-.06-2.09-1.89-3.13-2.95,1.09-1.04,2.04-2.56,3.33-2.94.75-.22,2.04,1.37,3.79,2.67Z"/>
  <path class="cls-1" d="M278.1,602.2c-1.45-1.91-2.9-2.99-2.87-4.01.04-1.04,1.53-2.04,2.39-3.05.97.92,2.54,1.72,2.73,2.78.18.99-1.11,2.24-2.26,4.29Z"/>
  <path class="cls-1" d="M231.2,500.03c-1.71,1.37-3.02,3.05-3.7,2.83-1.26-.41-2.16-1.94-3.21-3,1.02-.92,1.97-2.45,3.07-2.56.96-.1,2.08,1.4,3.84,2.73Z"/>
  <path class="cls-1" d="M733.81,269.42c-1.78,1.13-3.17,2.52-3.72,2.25-1.24-.62-2.23-1.99-2.93-3.27-.13-.24,1.85-2.28,2.41-2.1,1.34.43,2.41,1.69,4.24,3.12Z"/>
  <path class="cls-1" d="M664.16,171.99c-2.25,1.54-3.36,2.73-4.67,3.02-.62.14-1.61-1.45-2.44-2.25.98-.89,1.83-2.17,2.98-2.54.78-.25,1.96.78,4.13,1.77Z"/>
  <path class="cls-1" d="M179.96,717.59c1.19,2.04,2.52,3.32,2.3,4.2-.25.97-1.86,2-3,2.18-.59.09-2.1-1.66-2.04-2.49.08-1.06,1.34-2.02,2.74-3.89Z"/>
  <path class="cls-2" d="M793.18,661.63c0,8.33-.12,15.95.02,23.56.63,35.63,1.27,71.25,2.09,106.88.11,4.75-.93,6.83-6.18,7.77-34.02,6.07-67.97,12.58-101.93,19-49.66,9.39-99.31,18.83-148.96,28.25-5.99,1.14-11.98,2.26-18.94,3.58,0-5.31,0-9.73,0-14.16.09-45.1.17-90.2.27-135.3.02-7.73.07-7.55,7.77-8.45,29.59-3.45,59.15-7.07,88.74-10.56,29.42-3.47,58.86-6.87,88.28-10.31,26.61-3.12,53.22-6.26,79.83-9.38,2.46-.29,4.93-.47,9-.86ZM630.06,713.8c0,1.35.09,3.35-.02,5.33-.2,3.87,1.72,4.9,5.27,4.46,17.15-2.12,34.33-3.96,51.46-6.25,14.12-1.89,14.08-2.28,12.6-16.68-.44-4.32-1.77-6.25-6.37-5.66-19.43,2.47-38.89,4.75-58.33,7.17-4.05.5-5.7,2.99-5.1,7.02.19,1.31.29,2.64.5,4.61ZM596.02,734.72c-2.31-1.69-3.7-3.48-4.88-3.35-1.26.14-3.12,2.01-3.24,3.26-.1,1.03,1.89,3.06,3.11,3.19,1.23.13,2.65-1.54,5.01-3.09ZM566.66,749.43c-2.12-1.56-3.57-3.34-4.44-3.1-1.35.38-2.83,2-3.23,3.39-.2.71,1.9,2.96,2.85,2.9,1.38-.09,2.65-1.66,4.81-3.2ZM739.09,724.46c-1.5,2.25-3.12,3.64-2.89,4.59.32,1.36,1.99,2.39,3.09,3.56,1.07-1.09,2.96-2.16,2.99-3.27.03-1.28-1.59-2.59-3.18-4.88ZM688.5,774.36c-1.35,1.94-2.99,3.27-2.86,4.41.12,1.1,2.06,1.99,3.2,2.98.91-1.2,2.38-2.33,2.56-3.63.12-.91-1.52-2.06-2.89-3.75Z"/>
  <path class="cls-2" d="M545.41,521.79c38.96,22.12,75.99,46.5,111.96,75.21-4.24.42-7.22.79-10.21,1.01-22.08,1.67-44.17,3.32-66.25,4.98-.33.02-.66.06-.99.11-11.89,1.81-12.71,2.57-15.19,14.47-7.57.44-15.32.91-23.07,1.31-3.83.2-7.66.33-11.49.32-1.24,0-3.12-.12-3.62-.89-2.59-4.01-6.35-3.74-10.23-3.3-20.34,2.26-40.7,4.47-61.03,6.85-6.12.72-11.97-.67-16.36-4.33-8.12-6.77-17.23-7.75-26.8-6.1-9.4,1.62-17.59,6.27-24.13,13.24-2.77,2.95-5.74,4.16-9.58,4.36-10.31.54-20.61,1.24-30.92,1.91-8.11.52-9.55,2.04-9.59,9.9-.06,12.94-.15,12.68-12.37,16.78-14.97,5.03-29.81,10.47-44.63,15.92-2.94,1.08-5.56,3.04-8.33,4.59.22.61.43,1.22.65,1.83,1.72-.3,3.5-.42,5.16-.94,28.89-8.97,57.76-17.99,86.64-26.98.26-.08.61.13,1.26.28-1.89,3.53-3.84,6.93-5.57,10.43-7.14,14.39-7.7,29.02-1.7,43.96,2.77,6.9,7.02,12.04,15.96,13.75-4.06,1.73-7.01,3.07-10.01,4.27-25.2,10.01-50.35,20.27-77.01,25.72-8.86,1.81-18.35,3.07-27.19,1.9-23.45-3.11-36.39-26.44-29.19-50.73,4.33-14.58,12.44-27.21,21.08-39.47,23.19-32.9,51.05-61.91,77.04-92.49,16.22-19.08,35.18-33.76,57.21-45,3.54-1.81,6.87-4.02,10.78-6.33.81,2.72,1.56,5.17,2.26,7.63,9.03,31.76,35.34,52.12,68.29,53.05,12.26.34,24.23-.49,35.78-5.23,20.07-8.23,32.4-23.25,38.94-43.5.86-2.67,1.58-5.38,2.5-8.51ZM378.64,586.34c-2.83-2.34-4.35-4.55-6.08-4.73-1.35-.14-4.17,2.26-4.16,3.5.02,1.62,1.99,4.26,3.49,4.55,1.57.31,3.58-1.65,6.75-3.33ZM578.3,579.26c-2.76-1.56-4.4-3.26-5.74-3.04-1.41.22-3.5,2.27-3.5,3.52,0,1.3,2.26,3.75,3.31,3.64,1.67-.17,3.16-2.06,5.93-4.12ZM283.56,699.62c-.58-.44-1.17-.88-1.75-1.32-1.89,2.12-3.9,4.16-5.61,6.42-.52.69-.23,2-.3,3.02,1.14-.24,2.82-.09,3.33-.79,1.67-2.27,2.92-4.86,4.33-7.33ZM327.63,611.81c-.61-.42-1.22-.83-1.83-1.25-1.96,2.48-4,4.9-5.81,7.48-.34.49.08,1.79.55,2.43.19.27,1.81.05,2.1-.4,1.77-2.68,3.35-5.49,4.99-8.26ZM590.33,585.73c-1.64,2.23-3.32,3.52-3.17,4.55.19,1.33,1.83,2.46,2.85,3.68,1.06-1.01,2.93-1.97,2.99-3.04.07-1.34-1.33-2.77-2.67-5.2ZM389.08,600.69c1.56-1.8,3.29-2.93,3.29-4.05,0-1.11-1.75-2.23-2.74-3.34-1.05,1.09-2.61,2.03-2.97,3.31-.24.85,1.23,2.18,2.42,4.08ZM314.38,627.92c-.8-.44-1.6-.88-2.41-1.32-1.36,2.43-2.71,4.87-4.07,7.3l2.16,1.25c1.44-2.41,2.88-4.82,4.31-7.22Z"/>
  <path class="cls-2" d="M474.02,854.65c-7.1-2.99-13.49-5.67-19.88-8.38-33.21-14.11-66.36-28.38-99.68-42.24-7.02-2.92-10.23-6.54-9.69-14.69,1.06-15.94.97-31.96,1.18-47.95.03-2.65,1.06-3.66,3.36-4.64,20.95-8.93,41.85-18.01,62.75-27.08,1.67-.73,3.4-1.53,4.75-2.7.91-.79,1.21-2.29,1.78-3.48-1.33-.21-2.8-.89-3.96-.55-3.66,1.07-7.2,2.56-10.81,3.82-5.65,1.97-11.25,4.14-17,5.76-12.35,3.49-18.05.53-22.57-11.31-4.91-12.86-4.02-25.33,2.82-38.35.5,1.42.62,2.11.97,2.66.54.84,1.25,1.59,1.88,2.37.65-.65,1.58-1.18,1.9-1.97,1.2-2.92,2.11-5.96,3.29-8.89,5.49-13.64,12.55-26.15,25.31-34.43,6.01-3.9,12.57-6.31,19.8-5.65,3.13.29,6.16,1.7,9.24,2.6.03.53.05,1.06.08,1.59-1.8.97-3.65,1.87-5.39,2.94-7.78,4.78-15.63,9.45-23.19,14.55-1.48,1-1.79,3.72-2.65,5.64,2.11-.27,4.53.05,6.26-.9,8.89-4.86,17.4-10.45,26.48-14.91,3.44-1.69,8.03-1.35,12.09-1.26,1.27.03,3.15,2.1,3.52,3.56.28,1.09-1.05,3.21-2.25,3.97-3.63,2.33-7.71,3.97-11.31,6.35-6.92,4.59-13.69,9.42-20.36,14.38-1.15.86-1.47,2.84-2.17,4.3,1.94.1,4.36,1,5.74.17,6.7-4.03,13.07-8.6,19.66-12.81,3.07-1.96,6.28-3.8,9.64-5.2,1.88-.78,4.46-1.27,6.24-.6,2.3.87,4.11,3.03,6.13,4.64-1.56,1.43-3.01,3.03-4.71,4.27-8.86,6.46-17.86,12.72-26.59,19.35-1.31.99-2.56,4.21-1.93,5.21,1.8,2.89,4.24,1.16,6.36-.35,8.39-5.98,16.78-11.97,25.21-17.88,1.21-.85,2.63-1.44,4.02-1.98,3.4-1.32,6.72-1.31,8.9,2.03,2.19,3.36.2,6.27-2.22,8.34-2.88,2.46-6.46,4.11-9.46,6.45-6.94,5.41-13.81,10.91-20.47,16.66-1.14.98-1.11,3.33-1.62,5.05,1.86-.15,4.18.36,5.48-.57,4.73-3.38,9.23-7.12,13.61-10.96,2.87-2.52,5.31-2.37,8.94-1.16,7.31,2.43,9.86,6.33,9.86,14.34-.03,51.63.58,103.25.97,154.88,0,1.31-.15,2.62-.31,5.01Z"/>
  <path class="cls-2" d="M708.02,577.89c-2.86,3.31-5.75,6.12-7.95,9.39-1.62,2.41-2.65,5.35-3.34,8.2-.29,1.21.98,2.79,1.54,4.2,1.42-.81,3.29-1.28,4.18-2.48,3.03-4.1,5.13-9.03,8.66-12.57,4.86-4.87,9.86-4.71,14.24-1.24-2.5,4.09-5.27,7.99-7.27,12.24-.62,1.32.81,3.62,1.3,5.46,1.5-1.12,3.27-2.01,4.44-3.41,2-2.4,3.27-5.47,5.47-7.62,4.88-4.78,10.15-4.48,15.33.37q-6.24,11.19-2.93,15.02c1.78-2.47,3.25-5,5.2-7.08,1.49-1.59,3.6-2.61,5.43-3.88,1.22,2.05,3.09,3.98,3.52,6.18,1,5.18,1.31,10.5,1.97,16.38-5.84.52-11.6,1.04-17.36,1.53-31.01,2.65-62.03,5.3-93.05,7.91-3.81.32-7.66.32-11.47.65-4.24.37-7.01,2.38-7.96,6.87-.96,4.54-2.33,9.01-3.75,13.44-.39,1.23-1.5,3.02-2.47,3.15-5.7.76-11.46,1.11-17.77,1.64,2.87-7.87,5.58-14.99,7.99-22.21.47-1.4-.25-3.2-.42-4.81-1.55.87-3.88,1.37-4.51,2.68-2.71,5.69-5,11.6-7.31,17.47-3.39,8.59-4.86,9.47-14.61,8.11,2.08-9.58,3.98-19.19,6.42-28.66.41-1.58,3.12-3.39,4.96-3.64,14.51-1.93,29.03-3.88,43.61-5.11,30.86-2.61,61.75-4.77,92.63-7.16,1.59-.12,3.14-.59,4.72-.9.17-4.4-2.09-5.22-5.39-4.94-17.25,1.45-34.51,2.87-51.76,4.3-22.73,1.89-45.46,3.7-68.18,5.73-6.78.61-13.49,1.93-20.26,2.71-3.58.41-5.22,2.39-5.96,5.66-2.24,9.88-4.55,19.75-6.84,29.63-.17.72-.39,1.42-.44,1.61-2.99-2.89-5.92-5.72-9.8-9.47.68-5.52,1.56-12.59,2.44-19.65.06-.49.21-.98.28-1.47,1.61-11.35,1.55-11.92,12.73-13.17,15.86-1.78,31.81-2.73,47.73-3.83,12.96-.9,25.94-2.1,38.9-2.05,8.89.04,12.51-6.14,15.03-11.96,1.98-4.58,4.41-9.35,7.87-12.82,4.37-4.38,8.69-3.95,14.19-.41Z"/>
  <path class="cls-2" d="M771.17,634.87c1.42,0,2.9-.25,4.27.04,13.99,2.97,27.95,6.05,41.93,9.03,3.17.67,4.67,2.01,4.69,5.67.33,53.63.82,107.26,1.27,160.9.02,2.46,0,4.92,0,8.57-4.8-4-8.77-7.14-12.5-10.54-.79-.72-.99-2.39-1-3.63-.41-51.11-.84-102.22-1.01-153.34-.02-4.85-1.06-7.22-6.15-8.07-8.84-1.46-17.57-3.59-26.33-5.48-1.82-.39-3.61-.98-5.41-1.47.08-.56.17-1.11.25-1.67Z"/>
  <path class="cls-2" d="M629.83,649.38c1.49-4.83,2.44-9.41,4.4-13.51.86-1.8,3.68-3.58,5.74-3.74,23.74-1.9,47.5-3.46,71.25-5.16,16.78-1.2,33.55-2.48,50.32-3.7,1.63-.12,3.28-.02,5.9-.02-1,4.32-1.75,8.28-2.95,12.1-.24.77-2.19,1.29-3.4,1.41-21.71,2.15-43.42,4.2-65.13,6.31-20.87,2.03-41.74,4.1-62.62,6.15-.96.09-1.93.09-3.5.16Z"/>
  <path class="cls-2" d="M537.31,521.14c-4.66,20.86-15.26,36.72-35.05,44.68-25.02,10.06-61.47,9.15-84.17-18.91-6.2-7.67-10.15-16.34-12.41-25.86q-1.92-8.09,6.36-11.31c.39,1.4.76,2.74,1.15,4.09,7.1,24.45,21.74,41.98,47.58,46.3,26.06,4.36,47.71-2.07,62.94-25.55,1.17-1.81,2.55-3.69,2.99-5.72,1.19-5.5,4.75-7.51,10.61-7.7Z"/>
  <path class="cls-2" d="M519.43,526.15c-5.4,11.11-13.2,19.21-24.18,23.21-31.47,11.47-65.53-.38-74.65-37.24-1.62-6.53-1.28-7,6.24-8.04,1.77,12.59,8.18,22.6,17.98,30.54,13.82,11.19,40.28,12.73,55.17,3.06,2.46-1.6,5.2-3.65,6.35-6.17,2.71-5.9,7.37-5.56,13.09-5.37Z"/>
  <path class="cls-2" d="M463.45,642.96c12.6-1.39,23.79-2.77,35.02-3.82,15.24-1.44,30.49-2.69,45.75-3.85,2.31-.18,5.46-1.6,6.37,2.61,1.05,4.89.32,6.37-4.7,6.81-13.59,1.2-27.19,2.17-40.78,3.34-7.45.64-15.04.83-22.29,2.46-6.39,1.44-11.25-1.24-16.44-3.56-.95-.42-1.44-1.9-2.92-3.99Z"/>
  <path class="cls-2" d="M307.03,751.75c9.02-3.02,18.06-6.05,27.36-9.16v40.67c-11.72.04-22.91-15.26-27.36-31.51Z"/>
  <path class="cls-2" d="M521.92,630.86c-17.51,1.77-34.7,3.56-51.9,5.22-10.27.99-10.28.9-16-2.03.18-2.14.36-4.41.6-7.3,15.58-1.59,30.95-3.18,46.32-4.71,3.97-.4,7.96-.64,11.95-.93,8.96-.64,9.63.05,9.03,9.75Z"/>
  <path class="cls-2" d="M500.72,527.86c-12.08,9.76-25.67,10.05-39.52,6.52-14.7-3.75-25.99-17.03-27.83-32.35,18.52,19.96,41.61,26.24,67.35,25.83Z"/>
  <path class="cls-2" d="M831.99,639.77c1.4,59.14.85,118.31,1.53,177.45.01,1.23-1.19,2.47-1.83,3.71-.62-.14-1.25-.28-1.87-.41v-180.57c.72-.06,1.45-.12,2.17-.18Z"/>
  <path class="cls-2" d="M475.41,665.79c.57-2.16.67-3.94,1.49-5.3.83-1.4,2.29-3.31,3.59-3.41,27.04-2.07,54.1-3.97,81.16-5.73,3.37-.22,7.4-1.01,9.76,3.94-32.07,3.51-63.7,6.97-96,10.51Z"/>
  <path class="cls-2" d="M528.72,629.86v-5.12h34.87c1.02,4.27-.31,6.39-6.22,5.01-8.94-2.1-17.47.12-26.17.3-.66.01-1.31-.09-2.49-.18Z"/>
  <path class="cls-2" d="M485,352.92c13.34,19.82,32.96,26.34,53.79,30.75-.06.43-.12.86-.18,1.29-3.56-.37-7.22-.35-10.66-1.2-13.41-3.31-25.54-9.34-36.13-18.26-3.52-2.96-6.56-6.44-6.82-12.59Z"/>
  <path class="cls-2" d="M666.79,596.15c.18-3.2.31-5.63.48-8.72,3.1.43,5.87.56,8.48,1.27,1.25.34,3.27,2.15,3.1,2.61-.61,1.64-1.77,3.86-3.17,4.26-2.71.77-5.73.44-8.89.58Z"/>
  <path class="cls-2" d="M402.41,313.31c-4.06,6.83-8.04,12.54-10.96,18.75-2.85,6.05-4.62,12.61-7,19.33-1.94-8.28,9.08-31.99,17.96-38.08Z"/>
  <path class="cls-2" d="M362.95,635.05h16.65c-1.18,1.76-2.22,4.3-2.94,4.22-4.72-.55-9.37-1.67-14.05-2.61.11-.54.23-1.08.34-1.61Z"/>
  <path class="cls-2" d="M358.84,648.33c-3.45.88-6.89,1.77-10.74,2.76v-8.49c3.97,1.68,7.38,3.12,10.79,4.56l-.06,1.17Z"/>
  <path class="cls-2" d="M557.28,635.89c1.94-.09,3.54-.17,5.46-.26-.23,2.44-.2,4.6-.72,6.61-.3,1.14-1.51,2.04-2.31,3.04-.81-.97-2.1-1.84-2.32-2.93-.38-1.91-.11-3.95-.11-6.47Z"/>
  <path class="cls-2" d="M394.27,366.55c5.24-2.04,10.37-4.04,15.22-5.93.27,4.36-7.32,7.84-15.22,5.93Z"/>
  <path class="cls-2" d="M406.78,375.33c-1.75,4.96-7.1,7.42-14.13,6.09,4.95-2.13,9.58-4.13,14.13-6.09Z"/>
  <path class="cls-2" d="M266.36,884.93c-9.78-13.48-19.3-26.6-29.06-40.06,1.53,0,3.09-.03,4.65,0,20.61.41,41.23.95,61.84,1.15,3.68.04,6.25,1.03,8.65,3.72,4.6,5.17,9.47,10.11,14.72,15.67-21.09,5.54-42.23,8.25-60.8,19.53ZM308.09,854.17c-2.81-.91-4.25-1.91-5.38-1.65-10.25,2.38-20.48,4.89-30.63,7.64-1.12.3-1.76,2.36-2.62,3.61,1.53.52,3.26,1.78,4.57,1.44,9.44-2.44,18.81-5.16,28.17-7.92,1.59-.47,3-1.56,5.89-3.13Z"/>
  <path class="cls-1" d="M630.06,713.8c-.21-1.97-.31-3.3-.5-4.61-.59-4.02,1.05-6.52,5.1-7.02,19.44-2.42,38.9-4.7,58.33-7.17,4.6-.59,5.93,1.35,6.37,5.66,1.48,14.4,1.52,14.79-12.6,16.68-17.12,2.29-34.31,4.14-51.46,6.25-3.55.44-5.47-.59-5.27-4.46.11-1.99.02-3.98.02-5.33Z"/>
  <path class="cls-1" d="M596.02,734.72c-2.37,1.56-3.79,3.22-5.01,3.09-1.22-.13-3.2-2.16-3.11-3.19.12-1.25,1.98-3.12,3.24-3.26,1.18-.13,2.57,1.67,4.88,3.35Z"/>
  <path class="cls-1" d="M566.66,749.43c-2.16,1.54-3.44,3.1-4.81,3.2-.95.06-3.06-2.19-2.85-2.9.4-1.39,1.88-3.01,3.23-3.39.87-.25,2.32,1.54,4.44,3.1Z"/>
  <path class="cls-1" d="M739.09,724.46c1.59,2.29,3.21,3.6,3.18,4.88-.03,1.11-1.92,2.18-2.99,3.27-1.09-1.17-2.76-2.21-3.09-3.56-.23-.95,1.39-2.33,2.89-4.59Z"/>
  <path class="cls-1" d="M688.5,774.36c1.38,1.69,3.02,2.84,2.89,3.75-.18,1.3-1.64,2.43-2.56,3.63-1.14-.98-3.08-1.88-3.2-2.98-.12-1.14,1.52-2.47,2.86-4.41Z"/>
  <path class="cls-1" d="M378.64,586.34c-3.17,1.68-5.18,3.64-6.75,3.33-1.5-.29-3.47-2.93-3.49-4.55-.01-1.25,2.81-3.64,4.16-3.5,1.73.18,3.25,2.39,6.08,4.73Z"/>
  <path class="cls-1" d="M578.3,579.26c-2.77,2.06-4.26,3.95-5.93,4.12-1.06.11-3.32-2.35-3.31-3.64,0-1.26,2.1-3.3,3.5-3.52,1.34-.21,2.99,1.48,5.74,3.04Z"/>
  <path class="cls-1" d="M283.56,699.62c-1.41,2.47-2.66,5.05-4.33,7.33-.52.7-2.19.55-3.33.79.08-1.02-.22-2.33.3-3.02,1.71-2.26,3.72-4.29,5.61-6.42.58.44,1.17.88,1.75,1.32Z"/>
  <path class="cls-1" d="M327.63,611.81c-1.64,2.77-3.22,5.58-4.99,8.26-.29.44-1.91.66-2.1.4-.46-.64-.89-1.94-.55-2.43,1.8-2.59,3.85-5,5.81-7.48.61.42,1.22.83,1.83,1.25Z"/>
  <path class="cls-1" d="M590.33,585.73c1.34,2.43,2.74,3.85,2.67,5.2-.06,1.06-1.93,2.03-2.99,3.04-1.02-1.22-2.66-2.35-2.85-3.68-.15-1.04,1.53-2.33,3.17-4.55Z"/>
  <path class="cls-1" d="M389.08,600.69c-1.2-1.9-2.67-3.23-2.42-4.08.37-1.28,1.92-2.22,2.97-3.31.98,1.11,2.73,2.22,2.74,3.34,0,1.13-1.73,2.25-3.29,4.05Z"/>
  <path class="cls-1" d="M314.38,627.92c-1.44,2.41-2.88,4.82-4.31,7.22l-2.16-1.25c1.36-2.43,2.71-4.87,4.07-7.3.8.44,1.6.88,2.41,1.32Z"/>
  <path class="cls-1" d="M308.09,854.17c-2.89,1.56-4.3,2.66-5.89,3.13-9.36,2.76-18.73,5.48-28.17,7.92-1.31.34-3.04-.92-4.57-1.44.86-1.25,1.5-3.31,2.62-3.61,10.16-2.75,20.38-5.26,30.63-7.64,1.14-.26,2.57.74,5.38,1.65Z"/>
</svg>